<mxfile host="65bd71144e">
    <diagram id="uaE729dL7ire-wAx5dm5" name="Page-1">
        <mxGraphModel dx="1368" dy="708" grid="1" gridSize="10" guides="1" tooltips="1" connect="1" arrows="1" fold="1" page="1" pageScale="1" pageWidth="850" pageHeight="1100" math="0" shadow="0">
            <root>
                <mxCell id="0"/>
                <mxCell id="1" parent="0"/>
                <mxCell id="4" value="학번" style="ellipse;whiteSpace=wrap;html=1;align=center;fontStyle=4;" parent="1" vertex="1">
                    <mxGeometry x="79" y="177" width="100" height="40" as="geometry"/>
                </mxCell>
                <mxCell id="5" value="학과코드" style="ellipse;whiteSpace=wrap;html=1;align=center;fontStyle=4;" parent="1" vertex="1">
                    <mxGeometry x="690" y="155" width="100" height="40" as="geometry"/>
                </mxCell>
                <mxCell id="6" value="교수코드" style="ellipse;whiteSpace=wrap;html=1;align=center;fontStyle=4;" parent="1" vertex="1">
                    <mxGeometry x="549" y="287" width="100" height="40" as="geometry"/>
                </mxCell>
                <mxCell id="7" value="과목코드" style="ellipse;whiteSpace=wrap;html=1;align=center;fontStyle=4;" parent="1" vertex="1">
                    <mxGeometry x="291" y="560" width="100" height="40" as="geometry"/>
                </mxCell>
                <mxCell id="10" value="수강일자" style="ellipse;whiteSpace=wrap;html=1;align=center;" parent="1" vertex="1">
                    <mxGeometry x="66" y="393" width="100" height="40" as="geometry"/>
                </mxCell>
                <mxCell id="13" value="종료일" style="ellipse;whiteSpace=wrap;html=1;align=center;" parent="1" vertex="1">
                    <mxGeometry x="50" y="520" width="100" height="40" as="geometry"/>
                </mxCell>
                <mxCell id="14" value="시작일" style="ellipse;whiteSpace=wrap;html=1;align=center;" parent="1" vertex="1">
                    <mxGeometry x="81" y="590" width="100" height="40" as="geometry"/>
                </mxCell>
                <mxCell id="16" value="과목명" style="ellipse;whiteSpace=wrap;html=1;align=center;" parent="1" vertex="1">
                    <mxGeometry x="201" y="610" width="100" height="40" as="geometry"/>
                </mxCell>
                <mxCell id="19" value="교수명" style="ellipse;whiteSpace=wrap;html=1;align=center;" parent="1" vertex="1">
                    <mxGeometry x="549" y="337" width="100" height="40" as="geometry"/>
                </mxCell>
                <mxCell id="21" value="학과명" style="ellipse;whiteSpace=wrap;html=1;align=center;" parent="1" vertex="1">
                    <mxGeometry x="690" y="205" width="100" height="40" as="geometry"/>
                </mxCell>
                <mxCell id="24" value="키" style="ellipse;whiteSpace=wrap;html=1;align=center;" parent="1" vertex="1">
                    <mxGeometry x="250" y="110" width="100" height="40" as="geometry"/>
                </mxCell>
                <mxCell id="25" value="이름" style="ellipse;whiteSpace=wrap;html=1;align=center;" parent="1" vertex="1">
                    <mxGeometry x="133" y="120" width="100" height="40" as="geometry"/>
                </mxCell>
                <mxCell id="27" value="소속" style="shape=rhombus;perimeter=rhombusPerimeter;whiteSpace=wrap;html=1;align=center;" parent="1" vertex="1">
                    <mxGeometry x="377" y="171" width="120" height="60" as="geometry"/>
                </mxCell>
                <mxCell id="28" value="강의" style="shape=rhombus;perimeter=rhombusPerimeter;whiteSpace=wrap;html=1;align=center;" parent="1" vertex="1">
                    <mxGeometry x="360" y="420" width="120" height="60" as="geometry"/>
                </mxCell>
                <mxCell id="30" value="학생" style="whiteSpace=wrap;html=1;align=center;" parent="1" vertex="1">
                    <mxGeometry x="210" y="180" width="100" height="40" as="geometry"/>
                </mxCell>
                <mxCell id="31" value="학과" style="whiteSpace=wrap;html=1;align=center;" parent="1" vertex="1">
                    <mxGeometry x="560" y="180" width="100" height="40" as="geometry"/>
                </mxCell>
                <mxCell id="32" value="교수" style="whiteSpace=wrap;html=1;align=center;" parent="1" vertex="1">
                    <mxGeometry x="420" y="312" width="100" height="40" as="geometry"/>
                </mxCell>
                <mxCell id="33" value="과목" style="whiteSpace=wrap;html=1;align=center;" parent="1" vertex="1">
                    <mxGeometry x="171" y="530" width="100" height="40" as="geometry"/>
                </mxCell>
                <mxCell id="36" value="" style="endArrow=none;html=1;rounded=0;" parent="1" edge="1">
                    <mxGeometry relative="1" as="geometry">
                        <mxPoint x="180" y="197" as="sourcePoint"/>
                        <mxPoint x="210" y="197" as="targetPoint"/>
                    </mxGeometry>
                </mxCell>
                <mxCell id="37" value="" style="endArrow=none;html=1;rounded=0;entryX=0.658;entryY=0.005;entryDx=0;entryDy=0;entryPerimeter=0;" parent="1" target="30" edge="1">
                    <mxGeometry relative="1" as="geometry">
                        <mxPoint x="300" y="150" as="sourcePoint"/>
                        <mxPoint x="470" y="139.5" as="targetPoint"/>
                    </mxGeometry>
                </mxCell>
                <mxCell id="38" value="" style="endArrow=none;html=1;rounded=0;exitX=1;exitY=1;exitDx=0;exitDy=0;entryX=0.5;entryY=0;entryDx=0;entryDy=0;" parent="1" source="25" target="30" edge="1">
                    <mxGeometry relative="1" as="geometry">
                        <mxPoint x="177" y="155" as="sourcePoint"/>
                        <mxPoint x="337" y="155" as="targetPoint"/>
                    </mxGeometry>
                </mxCell>
                <mxCell id="39" value="" style="endArrow=none;html=1;rounded=0;exitX=1;exitY=0.25;exitDx=0;exitDy=0;" parent="1" source="31" edge="1">
                    <mxGeometry relative="1" as="geometry">
                        <mxPoint x="580" y="174.5" as="sourcePoint"/>
                        <mxPoint x="690" y="175" as="targetPoint"/>
                    </mxGeometry>
                </mxCell>
                <mxCell id="40" value="" style="endArrow=none;html=1;rounded=0;exitX=1;exitY=0.75;exitDx=0;exitDy=0;entryX=0;entryY=0.5;entryDx=0;entryDy=0;" parent="1" source="31" target="21" edge="1">
                    <mxGeometry relative="1" as="geometry">
                        <mxPoint x="660" y="270" as="sourcePoint"/>
                        <mxPoint x="820" y="270" as="targetPoint"/>
                    </mxGeometry>
                </mxCell>
                <mxCell id="41" value="" style="endArrow=none;html=1;rounded=0;exitX=1;exitY=0.25;exitDx=0;exitDy=0;entryX=0;entryY=0.5;entryDx=0;entryDy=0;" parent="1" source="32" target="6" edge="1">
                    <mxGeometry relative="1" as="geometry">
                        <mxPoint x="460" y="312" as="sourcePoint"/>
                        <mxPoint x="620" y="312" as="targetPoint"/>
                    </mxGeometry>
                </mxCell>
                <mxCell id="42" value="" style="endArrow=none;html=1;rounded=0;entryX=0;entryY=0.5;entryDx=0;entryDy=0;" parent="1" target="19" edge="1">
                    <mxGeometry relative="1" as="geometry">
                        <mxPoint x="520" y="337" as="sourcePoint"/>
                        <mxPoint x="680" y="337" as="targetPoint"/>
                    </mxGeometry>
                </mxCell>
                <mxCell id="43" value="" style="endArrow=none;html=1;rounded=0;entryX=0;entryY=0.5;entryDx=0;entryDy=0;" parent="1" target="33" edge="1">
                    <mxGeometry relative="1" as="geometry">
                        <mxPoint x="150" y="539.5" as="sourcePoint"/>
                        <mxPoint x="310" y="539.5" as="targetPoint"/>
                    </mxGeometry>
                </mxCell>
                <mxCell id="45" value="" style="endArrow=none;html=1;rounded=0;" parent="1" target="7" edge="1">
                    <mxGeometry relative="1" as="geometry">
                        <mxPoint x="271" y="549" as="sourcePoint"/>
                        <mxPoint x="431" y="549" as="targetPoint"/>
                    </mxGeometry>
                </mxCell>
                <mxCell id="46" value="" style="endArrow=none;html=1;rounded=0;entryX=0.736;entryY=0.085;entryDx=0;entryDy=0;entryPerimeter=0;" parent="1" target="16" edge="1">
                    <mxGeometry relative="1" as="geometry">
                        <mxPoint x="220" y="570" as="sourcePoint"/>
                        <mxPoint x="380" y="570" as="targetPoint"/>
                    </mxGeometry>
                </mxCell>
                <mxCell id="47" value="" style="endArrow=none;html=1;rounded=0;" parent="1" edge="1">
                    <mxGeometry relative="1" as="geometry">
                        <mxPoint x="150" y="590" as="sourcePoint"/>
                        <mxPoint x="210" y="570" as="targetPoint"/>
                    </mxGeometry>
                </mxCell>
                <mxCell id="51" value="" style="endArrow=none;html=1;rounded=0;entryX=0;entryY=0.5;entryDx=0;entryDy=0;exitX=1;exitY=0.5;exitDx=0;exitDy=0;" parent="1" source="27" target="31" edge="1">
                    <mxGeometry relative="1" as="geometry">
                        <mxPoint x="310" y="199.5" as="sourcePoint"/>
                        <mxPoint x="470" y="199.5" as="targetPoint"/>
                    </mxGeometry>
                </mxCell>
                <mxCell id="52" value="N" style="resizable=0;html=1;align=right;verticalAlign=bottom;" parent="51" connectable="0" vertex="1">
                    <mxGeometry x="1" relative="1" as="geometry">
                        <mxPoint x="-230" y="-5" as="offset"/>
                    </mxGeometry>
                </mxCell>
                <mxCell id="53" value="" style="endArrow=none;html=1;rounded=0;entryX=1;entryY=0.5;entryDx=0;entryDy=0;" parent="1" target="30" edge="1">
                    <mxGeometry relative="1" as="geometry">
                        <mxPoint x="377" y="200.5" as="sourcePoint"/>
                        <mxPoint x="537" y="200.5" as="targetPoint"/>
                    </mxGeometry>
                </mxCell>
                <mxCell id="54" value="1" style="resizable=0;html=1;align=right;verticalAlign=bottom;" parent="53" connectable="0" vertex="1">
                    <mxGeometry x="1" relative="1" as="geometry">
                        <mxPoint x="239" y="-5" as="offset"/>
                    </mxGeometry>
                </mxCell>
                <mxCell id="56" value="" style="endArrow=none;html=1;rounded=0;exitX=0.5;exitY=1;exitDx=0;exitDy=0;entryX=0.5;entryY=0;entryDx=0;entryDy=0;" parent="1" source="27" target="32" edge="1">
                    <mxGeometry relative="1" as="geometry">
                        <mxPoint x="360" y="490" as="sourcePoint"/>
                        <mxPoint x="520" y="490" as="targetPoint"/>
                    </mxGeometry>
                </mxCell>
                <mxCell id="57" value="N" style="resizable=0;html=1;align=right;verticalAlign=bottom;" parent="56" connectable="0" vertex="1">
                    <mxGeometry x="1" relative="1" as="geometry">
                        <mxPoint x="20" y="-5" as="offset"/>
                    </mxGeometry>
                </mxCell>
                <mxCell id="58" value="" style="endArrow=none;html=1;rounded=0;exitX=0.5;exitY=0;exitDx=0;exitDy=0;entryX=0.5;entryY=1;entryDx=0;entryDy=0;" parent="1" source="28" target="32" edge="1">
                    <mxGeometry relative="1" as="geometry">
                        <mxPoint x="360" y="490" as="sourcePoint"/>
                        <mxPoint x="550" y="440" as="targetPoint"/>
                    </mxGeometry>
                </mxCell>
                <mxCell id="59" value="1" style="resizable=0;html=1;align=right;verticalAlign=bottom;" parent="58" connectable="0" vertex="1">
                    <mxGeometry x="1" relative="1" as="geometry">
                        <mxPoint x="10" y="25" as="offset"/>
                    </mxGeometry>
                </mxCell>
                <mxCell id="60" value="" style="endArrow=none;html=1;rounded=0;exitX=0;exitY=1;exitDx=0;exitDy=0;entryX=1;entryY=0;entryDx=0;entryDy=0;" parent="1" source="28" target="33" edge="1">
                    <mxGeometry relative="1" as="geometry">
                        <mxPoint x="271" y="420" as="sourcePoint"/>
                        <mxPoint x="304" y="501" as="targetPoint"/>
                    </mxGeometry>
                </mxCell>
                <mxCell id="61" value="N" style="resizable=0;html=1;align=right;verticalAlign=bottom;" parent="60" connectable="0" vertex="1">
                    <mxGeometry x="1" relative="1" as="geometry">
                        <mxPoint x="5" y="-6" as="offset"/>
                    </mxGeometry>
                </mxCell>
                <mxCell id="62" value="" style="endArrow=none;html=1;rounded=0;entryX=0.5;entryY=1;entryDx=0;entryDy=0;exitX=0.5;exitY=0;exitDx=0;exitDy=0;" parent="1" edge="1">
                    <mxGeometry relative="1" as="geometry">
                        <mxPoint x="227" y="530" as="sourcePoint"/>
                        <mxPoint x="266" y="220" as="targetPoint"/>
                    </mxGeometry>
                </mxCell>
                <mxCell id="63" value="M" style="resizable=0;html=1;align=left;verticalAlign=bottom;" parent="62" connectable="0" vertex="1">
                    <mxGeometry x="-1" relative="1" as="geometry">
                        <mxPoint x="15" y="-288" as="offset"/>
                    </mxGeometry>
                </mxCell>
                <mxCell id="64" value="N" style="resizable=0;html=1;align=right;verticalAlign=bottom;" parent="62" connectable="0" vertex="1">
                    <mxGeometry x="1" relative="1" as="geometry">
                        <mxPoint x="-46" y="303" as="offset"/>
                    </mxGeometry>
                </mxCell>
                <mxCell id="29" value="수강" style="shape=rhombus;perimeter=rhombusPerimeter;whiteSpace=wrap;html=1;align=center;" parent="1" vertex="1">
                    <mxGeometry x="186" y="352" width="120" height="60" as="geometry"/>
                </mxCell>
                <mxCell id="66" value="" style="endArrow=none;html=1;rounded=0;entryX=0;entryY=0;entryDx=0;entryDy=0;" parent="1" target="29" edge="1">
                    <mxGeometry relative="1" as="geometry">
                        <mxPoint x="171" y="344.5" as="sourcePoint"/>
                        <mxPoint x="331" y="344.5" as="targetPoint"/>
                    </mxGeometry>
                </mxCell>
                <mxCell id="67" value="" style="endArrow=none;html=1;rounded=0;entryX=0;entryY=1;entryDx=0;entryDy=0;" parent="1" target="29" edge="1">
                    <mxGeometry relative="1" as="geometry">
                        <mxPoint x="166" y="413.5" as="sourcePoint"/>
                        <mxPoint x="326" y="413.5" as="targetPoint"/>
                    </mxGeometry>
                </mxCell>
                <mxCell id="AJs8k5p1SqxVHF7C1Xo9-67" value="수강번호" style="ellipse;whiteSpace=wrap;html=1;align=center;fontStyle=4;" parent="1" vertex="1">
                    <mxGeometry x="70" y="322" width="100" height="40" as="geometry"/>
                </mxCell>
            </root>
        </mxGraphModel>
    </diagram>
    <diagram id="B_rIICo8aOB4fNC3Wihz" name="Page-2">
        <mxGraphModel dx="1368" dy="708" grid="1" gridSize="10" guides="1" tooltips="1" connect="1" arrows="1" fold="1" page="1" pageScale="1" pageWidth="850" pageHeight="1100" math="0" shadow="0">
            <root>
                <mxCell id="0"/>
                <mxCell id="1" parent="0"/>
                <mxCell id="00DvF_M2tQQR9Dovzkwx-1" value="과목" style="shape=table;startSize=30;container=1;collapsible=1;childLayout=tableLayout;fixedRows=1;rowLines=0;fontStyle=1;align=center;resizeLast=1;" parent="1" vertex="1">
                    <mxGeometry x="173" y="561" width="118" height="180" as="geometry"/>
                </mxCell>
                <mxCell id="00DvF_M2tQQR9Dovzkwx-2" value="" style="shape=tableRow;horizontal=0;startSize=0;swimlaneHead=0;swimlaneBody=0;fillColor=none;collapsible=0;dropTarget=0;points=[[0,0.5],[1,0.5]];portConstraint=eastwest;top=0;left=0;right=0;bottom=1;" parent="00DvF_M2tQQR9Dovzkwx-1" vertex="1">
                    <mxGeometry y="30" width="118" height="30" as="geometry"/>
                </mxCell>
                <mxCell id="00DvF_M2tQQR9Dovzkwx-3" value="PK" style="shape=partialRectangle;connectable=0;fillColor=none;top=0;left=0;bottom=0;right=0;fontStyle=1;overflow=hidden;" parent="00DvF_M2tQQR9Dovzkwx-2" vertex="1">
                    <mxGeometry width="30" height="30" as="geometry">
                        <mxRectangle width="30" height="30" as="alternateBounds"/>
                    </mxGeometry>
                </mxCell>
                <mxCell id="00DvF_M2tQQR9Dovzkwx-4" value="과목코드" style="shape=partialRectangle;connectable=0;fillColor=none;top=0;left=0;bottom=0;right=0;align=left;spacingLeft=6;fontStyle=5;overflow=hidden;" parent="00DvF_M2tQQR9Dovzkwx-2" vertex="1">
                    <mxGeometry x="30" width="88" height="30" as="geometry">
                        <mxRectangle width="88" height="30" as="alternateBounds"/>
                    </mxGeometry>
                </mxCell>
                <mxCell id="MWFlpXkXOoF9CiIFMSil-19" value="" style="shape=tableRow;horizontal=0;startSize=0;swimlaneHead=0;swimlaneBody=0;fillColor=none;collapsible=0;dropTarget=0;points=[[0,0.5],[1,0.5]];portConstraint=eastwest;top=0;left=0;right=0;bottom=1;" parent="00DvF_M2tQQR9Dovzkwx-1" vertex="1">
                    <mxGeometry y="60" width="118" height="30" as="geometry"/>
                </mxCell>
                <mxCell id="MWFlpXkXOoF9CiIFMSil-20" value="FK" style="shape=partialRectangle;connectable=0;fillColor=none;top=0;left=0;bottom=0;right=0;fontStyle=1;overflow=hidden;" parent="MWFlpXkXOoF9CiIFMSil-19" vertex="1">
                    <mxGeometry width="30" height="30" as="geometry">
                        <mxRectangle width="30" height="30" as="alternateBounds"/>
                    </mxGeometry>
                </mxCell>
                <mxCell id="MWFlpXkXOoF9CiIFMSil-21" value="교수코드" style="shape=partialRectangle;connectable=0;fillColor=none;top=0;left=0;bottom=0;right=0;align=left;spacingLeft=6;fontStyle=5;overflow=hidden;" parent="MWFlpXkXOoF9CiIFMSil-19" vertex="1">
                    <mxGeometry x="30" width="88" height="30" as="geometry">
                        <mxRectangle width="88" height="30" as="alternateBounds"/>
                    </mxGeometry>
                </mxCell>
                <mxCell id="00DvF_M2tQQR9Dovzkwx-5" value="" style="shape=tableRow;horizontal=0;startSize=0;swimlaneHead=0;swimlaneBody=0;fillColor=none;collapsible=0;dropTarget=0;points=[[0,0.5],[1,0.5]];portConstraint=eastwest;top=0;left=0;right=0;bottom=0;" parent="00DvF_M2tQQR9Dovzkwx-1" vertex="1">
                    <mxGeometry y="90" width="118" height="30" as="geometry"/>
                </mxCell>
                <mxCell id="00DvF_M2tQQR9Dovzkwx-6" value="" style="shape=partialRectangle;connectable=0;fillColor=none;top=0;left=0;bottom=0;right=0;editable=1;overflow=hidden;" parent="00DvF_M2tQQR9Dovzkwx-5" vertex="1">
                    <mxGeometry width="30" height="30" as="geometry">
                        <mxRectangle width="30" height="30" as="alternateBounds"/>
                    </mxGeometry>
                </mxCell>
                <mxCell id="00DvF_M2tQQR9Dovzkwx-7" value="과목명" style="shape=partialRectangle;connectable=0;fillColor=none;top=0;left=0;bottom=0;right=0;align=left;spacingLeft=6;overflow=hidden;" parent="00DvF_M2tQQR9Dovzkwx-5" vertex="1">
                    <mxGeometry x="30" width="88" height="30" as="geometry">
                        <mxRectangle width="88" height="30" as="alternateBounds"/>
                    </mxGeometry>
                </mxCell>
                <mxCell id="00DvF_M2tQQR9Dovzkwx-8" value="" style="shape=tableRow;horizontal=0;startSize=0;swimlaneHead=0;swimlaneBody=0;fillColor=none;collapsible=0;dropTarget=0;points=[[0,0.5],[1,0.5]];portConstraint=eastwest;top=0;left=0;right=0;bottom=0;" parent="00DvF_M2tQQR9Dovzkwx-1" vertex="1">
                    <mxGeometry y="120" width="118" height="30" as="geometry"/>
                </mxCell>
                <mxCell id="00DvF_M2tQQR9Dovzkwx-9" value="" style="shape=partialRectangle;connectable=0;fillColor=none;top=0;left=0;bottom=0;right=0;editable=1;overflow=hidden;" parent="00DvF_M2tQQR9Dovzkwx-8" vertex="1">
                    <mxGeometry width="30" height="30" as="geometry">
                        <mxRectangle width="30" height="30" as="alternateBounds"/>
                    </mxGeometry>
                </mxCell>
                <mxCell id="00DvF_M2tQQR9Dovzkwx-10" value="시작일" style="shape=partialRectangle;connectable=0;fillColor=none;top=0;left=0;bottom=0;right=0;align=left;spacingLeft=6;overflow=hidden;" parent="00DvF_M2tQQR9Dovzkwx-8" vertex="1">
                    <mxGeometry x="30" width="88" height="30" as="geometry">
                        <mxRectangle width="88" height="30" as="alternateBounds"/>
                    </mxGeometry>
                </mxCell>
                <mxCell id="00DvF_M2tQQR9Dovzkwx-11" value="" style="shape=tableRow;horizontal=0;startSize=0;swimlaneHead=0;swimlaneBody=0;fillColor=none;collapsible=0;dropTarget=0;points=[[0,0.5],[1,0.5]];portConstraint=eastwest;top=0;left=0;right=0;bottom=0;" parent="00DvF_M2tQQR9Dovzkwx-1" vertex="1">
                    <mxGeometry y="150" width="118" height="30" as="geometry"/>
                </mxCell>
                <mxCell id="00DvF_M2tQQR9Dovzkwx-12" value="" style="shape=partialRectangle;connectable=0;fillColor=none;top=0;left=0;bottom=0;right=0;editable=1;overflow=hidden;" parent="00DvF_M2tQQR9Dovzkwx-11" vertex="1">
                    <mxGeometry width="30" height="30" as="geometry">
                        <mxRectangle width="30" height="30" as="alternateBounds"/>
                    </mxGeometry>
                </mxCell>
                <mxCell id="00DvF_M2tQQR9Dovzkwx-13" value="종료일" style="shape=partialRectangle;connectable=0;fillColor=none;top=0;left=0;bottom=0;right=0;align=left;spacingLeft=6;overflow=hidden;" parent="00DvF_M2tQQR9Dovzkwx-11" vertex="1">
                    <mxGeometry x="30" width="88" height="30" as="geometry">
                        <mxRectangle width="88" height="30" as="alternateBounds"/>
                    </mxGeometry>
                </mxCell>
                <mxCell id="00DvF_M2tQQR9Dovzkwx-14" value="학생" style="shape=table;startSize=30;container=1;collapsible=1;childLayout=tableLayout;fixedRows=1;rowLines=0;fontStyle=1;align=center;resizeLast=1;" parent="1" vertex="1">
                    <mxGeometry x="173" y="120" width="118" height="150" as="geometry"/>
                </mxCell>
                <mxCell id="00DvF_M2tQQR9Dovzkwx-15" value="" style="shape=tableRow;horizontal=0;startSize=0;swimlaneHead=0;swimlaneBody=0;fillColor=none;collapsible=0;dropTarget=0;points=[[0,0.5],[1,0.5]];portConstraint=eastwest;top=0;left=0;right=0;bottom=1;" parent="00DvF_M2tQQR9Dovzkwx-14" vertex="1">
                    <mxGeometry y="30" width="118" height="30" as="geometry"/>
                </mxCell>
                <mxCell id="00DvF_M2tQQR9Dovzkwx-16" value="PK" style="shape=partialRectangle;connectable=0;fillColor=none;top=0;left=0;bottom=0;right=0;fontStyle=1;overflow=hidden;" parent="00DvF_M2tQQR9Dovzkwx-15" vertex="1">
                    <mxGeometry width="30" height="30" as="geometry">
                        <mxRectangle width="30" height="30" as="alternateBounds"/>
                    </mxGeometry>
                </mxCell>
                <mxCell id="00DvF_M2tQQR9Dovzkwx-17" value="학번" style="shape=partialRectangle;connectable=0;fillColor=none;top=0;left=0;bottom=0;right=0;align=left;spacingLeft=6;fontStyle=5;overflow=hidden;" parent="00DvF_M2tQQR9Dovzkwx-15" vertex="1">
                    <mxGeometry x="30" width="88" height="30" as="geometry">
                        <mxRectangle width="88" height="30" as="alternateBounds"/>
                    </mxGeometry>
                </mxCell>
                <mxCell id="MWFlpXkXOoF9CiIFMSil-15" value="" style="shape=tableRow;horizontal=0;startSize=0;swimlaneHead=0;swimlaneBody=0;fillColor=none;collapsible=0;dropTarget=0;points=[[0,0.5],[1,0.5]];portConstraint=eastwest;top=0;left=0;right=0;bottom=1;" parent="00DvF_M2tQQR9Dovzkwx-14" vertex="1">
                    <mxGeometry y="60" width="118" height="30" as="geometry"/>
                </mxCell>
                <mxCell id="MWFlpXkXOoF9CiIFMSil-16" value="FK" style="shape=partialRectangle;connectable=0;fillColor=none;top=0;left=0;bottom=0;right=0;fontStyle=1;overflow=hidden;" parent="MWFlpXkXOoF9CiIFMSil-15" vertex="1">
                    <mxGeometry width="30" height="30" as="geometry">
                        <mxRectangle width="30" height="30" as="alternateBounds"/>
                    </mxGeometry>
                </mxCell>
                <mxCell id="MWFlpXkXOoF9CiIFMSil-17" value="학과코드" style="shape=partialRectangle;connectable=0;fillColor=none;top=0;left=0;bottom=0;right=0;align=left;spacingLeft=6;fontStyle=5;overflow=hidden;" parent="MWFlpXkXOoF9CiIFMSil-15" vertex="1">
                    <mxGeometry x="30" width="88" height="30" as="geometry">
                        <mxRectangle width="88" height="30" as="alternateBounds"/>
                    </mxGeometry>
                </mxCell>
                <mxCell id="00DvF_M2tQQR9Dovzkwx-18" value="" style="shape=tableRow;horizontal=0;startSize=0;swimlaneHead=0;swimlaneBody=0;fillColor=none;collapsible=0;dropTarget=0;points=[[0,0.5],[1,0.5]];portConstraint=eastwest;top=0;left=0;right=0;bottom=0;" parent="00DvF_M2tQQR9Dovzkwx-14" vertex="1">
                    <mxGeometry y="90" width="118" height="30" as="geometry"/>
                </mxCell>
                <mxCell id="00DvF_M2tQQR9Dovzkwx-19" value="" style="shape=partialRectangle;connectable=0;fillColor=none;top=0;left=0;bottom=0;right=0;editable=1;overflow=hidden;" parent="00DvF_M2tQQR9Dovzkwx-18" vertex="1">
                    <mxGeometry width="30" height="30" as="geometry">
                        <mxRectangle width="30" height="30" as="alternateBounds"/>
                    </mxGeometry>
                </mxCell>
                <mxCell id="00DvF_M2tQQR9Dovzkwx-20" value="이름" style="shape=partialRectangle;connectable=0;fillColor=none;top=0;left=0;bottom=0;right=0;align=left;spacingLeft=6;overflow=hidden;" parent="00DvF_M2tQQR9Dovzkwx-18" vertex="1">
                    <mxGeometry x="30" width="88" height="30" as="geometry">
                        <mxRectangle width="88" height="30" as="alternateBounds"/>
                    </mxGeometry>
                </mxCell>
                <mxCell id="00DvF_M2tQQR9Dovzkwx-21" value="" style="shape=tableRow;horizontal=0;startSize=0;swimlaneHead=0;swimlaneBody=0;fillColor=none;collapsible=0;dropTarget=0;points=[[0,0.5],[1,0.5]];portConstraint=eastwest;top=0;left=0;right=0;bottom=0;" parent="00DvF_M2tQQR9Dovzkwx-14" vertex="1">
                    <mxGeometry y="120" width="118" height="30" as="geometry"/>
                </mxCell>
                <mxCell id="00DvF_M2tQQR9Dovzkwx-22" value="" style="shape=partialRectangle;connectable=0;fillColor=none;top=0;left=0;bottom=0;right=0;editable=1;overflow=hidden;" parent="00DvF_M2tQQR9Dovzkwx-21" vertex="1">
                    <mxGeometry width="30" height="30" as="geometry">
                        <mxRectangle width="30" height="30" as="alternateBounds"/>
                    </mxGeometry>
                </mxCell>
                <mxCell id="00DvF_M2tQQR9Dovzkwx-23" value="키" style="shape=partialRectangle;connectable=0;fillColor=none;top=0;left=0;bottom=0;right=0;align=left;spacingLeft=6;overflow=hidden;" parent="00DvF_M2tQQR9Dovzkwx-21" vertex="1">
                    <mxGeometry x="30" width="88" height="30" as="geometry">
                        <mxRectangle width="88" height="30" as="alternateBounds"/>
                    </mxGeometry>
                </mxCell>
                <mxCell id="00DvF_M2tQQR9Dovzkwx-33" value="교수" style="shape=table;startSize=30;container=1;collapsible=1;childLayout=tableLayout;fixedRows=1;rowLines=0;fontStyle=1;align=center;resizeLast=1;" parent="1" vertex="1">
                    <mxGeometry x="534" y="561" width="119" height="120" as="geometry"/>
                </mxCell>
                <mxCell id="00DvF_M2tQQR9Dovzkwx-34" value="" style="shape=tableRow;horizontal=0;startSize=0;swimlaneHead=0;swimlaneBody=0;fillColor=none;collapsible=0;dropTarget=0;points=[[0,0.5],[1,0.5]];portConstraint=eastwest;top=0;left=0;right=0;bottom=1;" parent="00DvF_M2tQQR9Dovzkwx-33" vertex="1">
                    <mxGeometry y="30" width="119" height="30" as="geometry"/>
                </mxCell>
                <mxCell id="00DvF_M2tQQR9Dovzkwx-35" value="PK" style="shape=partialRectangle;connectable=0;fillColor=none;top=0;left=0;bottom=0;right=0;fontStyle=1;overflow=hidden;" parent="00DvF_M2tQQR9Dovzkwx-34" vertex="1">
                    <mxGeometry width="30" height="30" as="geometry">
                        <mxRectangle width="30" height="30" as="alternateBounds"/>
                    </mxGeometry>
                </mxCell>
                <mxCell id="00DvF_M2tQQR9Dovzkwx-36" value="교수코드" style="shape=partialRectangle;connectable=0;fillColor=none;top=0;left=0;bottom=0;right=0;align=left;spacingLeft=6;fontStyle=5;overflow=hidden;" parent="00DvF_M2tQQR9Dovzkwx-34" vertex="1">
                    <mxGeometry x="30" width="89" height="30" as="geometry">
                        <mxRectangle width="89" height="30" as="alternateBounds"/>
                    </mxGeometry>
                </mxCell>
                <mxCell id="MWFlpXkXOoF9CiIFMSil-24" value="" style="shape=tableRow;horizontal=0;startSize=0;swimlaneHead=0;swimlaneBody=0;fillColor=none;collapsible=0;dropTarget=0;points=[[0,0.5],[1,0.5]];portConstraint=eastwest;top=0;left=0;right=0;bottom=1;" parent="00DvF_M2tQQR9Dovzkwx-33" vertex="1">
                    <mxGeometry y="60" width="119" height="30" as="geometry"/>
                </mxCell>
                <mxCell id="MWFlpXkXOoF9CiIFMSil-25" value="FK" style="shape=partialRectangle;connectable=0;fillColor=none;top=0;left=0;bottom=0;right=0;fontStyle=1;overflow=hidden;" parent="MWFlpXkXOoF9CiIFMSil-24" vertex="1">
                    <mxGeometry width="30" height="30" as="geometry">
                        <mxRectangle width="30" height="30" as="alternateBounds"/>
                    </mxGeometry>
                </mxCell>
                <mxCell id="MWFlpXkXOoF9CiIFMSil-26" value="학과코드" style="shape=partialRectangle;connectable=0;fillColor=none;top=0;left=0;bottom=0;right=0;align=left;spacingLeft=6;fontStyle=5;overflow=hidden;" parent="MWFlpXkXOoF9CiIFMSil-24" vertex="1">
                    <mxGeometry x="30" width="89" height="30" as="geometry">
                        <mxRectangle width="89" height="30" as="alternateBounds"/>
                    </mxGeometry>
                </mxCell>
                <mxCell id="00DvF_M2tQQR9Dovzkwx-37" value="" style="shape=tableRow;horizontal=0;startSize=0;swimlaneHead=0;swimlaneBody=0;fillColor=none;collapsible=0;dropTarget=0;points=[[0,0.5],[1,0.5]];portConstraint=eastwest;top=0;left=0;right=0;bottom=0;" parent="00DvF_M2tQQR9Dovzkwx-33" vertex="1">
                    <mxGeometry y="90" width="119" height="30" as="geometry"/>
                </mxCell>
                <mxCell id="00DvF_M2tQQR9Dovzkwx-38" value="" style="shape=partialRectangle;connectable=0;fillColor=none;top=0;left=0;bottom=0;right=0;editable=1;overflow=hidden;" parent="00DvF_M2tQQR9Dovzkwx-37" vertex="1">
                    <mxGeometry width="30" height="30" as="geometry">
                        <mxRectangle width="30" height="30" as="alternateBounds"/>
                    </mxGeometry>
                </mxCell>
                <mxCell id="00DvF_M2tQQR9Dovzkwx-39" value="교수명" style="shape=partialRectangle;connectable=0;fillColor=none;top=0;left=0;bottom=0;right=0;align=left;spacingLeft=6;overflow=hidden;" parent="00DvF_M2tQQR9Dovzkwx-37" vertex="1">
                    <mxGeometry x="30" width="89" height="30" as="geometry">
                        <mxRectangle width="89" height="30" as="alternateBounds"/>
                    </mxGeometry>
                </mxCell>
                <mxCell id="00DvF_M2tQQR9Dovzkwx-46" value="학과" style="shape=table;startSize=30;container=1;collapsible=1;childLayout=tableLayout;fixedRows=1;rowLines=0;fontStyle=1;align=center;resizeLast=1;" parent="1" vertex="1">
                    <mxGeometry x="534" y="120" width="119" height="90" as="geometry"/>
                </mxCell>
                <mxCell id="00DvF_M2tQQR9Dovzkwx-47" value="" style="shape=tableRow;horizontal=0;startSize=0;swimlaneHead=0;swimlaneBody=0;fillColor=none;collapsible=0;dropTarget=0;points=[[0,0.5],[1,0.5]];portConstraint=eastwest;top=0;left=0;right=0;bottom=1;" parent="00DvF_M2tQQR9Dovzkwx-46" vertex="1">
                    <mxGeometry y="30" width="119" height="30" as="geometry"/>
                </mxCell>
                <mxCell id="00DvF_M2tQQR9Dovzkwx-48" value="PK" style="shape=partialRectangle;connectable=0;fillColor=none;top=0;left=0;bottom=0;right=0;fontStyle=1;overflow=hidden;" parent="00DvF_M2tQQR9Dovzkwx-47" vertex="1">
                    <mxGeometry width="30" height="30" as="geometry">
                        <mxRectangle width="30" height="30" as="alternateBounds"/>
                    </mxGeometry>
                </mxCell>
                <mxCell id="00DvF_M2tQQR9Dovzkwx-49" value="학과코드" style="shape=partialRectangle;connectable=0;fillColor=none;top=0;left=0;bottom=0;right=0;align=left;spacingLeft=6;fontStyle=5;overflow=hidden;" parent="00DvF_M2tQQR9Dovzkwx-47" vertex="1">
                    <mxGeometry x="30" width="89" height="30" as="geometry">
                        <mxRectangle width="89" height="30" as="alternateBounds"/>
                    </mxGeometry>
                </mxCell>
                <mxCell id="00DvF_M2tQQR9Dovzkwx-50" value="" style="shape=tableRow;horizontal=0;startSize=0;swimlaneHead=0;swimlaneBody=0;fillColor=none;collapsible=0;dropTarget=0;points=[[0,0.5],[1,0.5]];portConstraint=eastwest;top=0;left=0;right=0;bottom=0;" parent="00DvF_M2tQQR9Dovzkwx-46" vertex="1">
                    <mxGeometry y="60" width="119" height="30" as="geometry"/>
                </mxCell>
                <mxCell id="00DvF_M2tQQR9Dovzkwx-51" value="" style="shape=partialRectangle;connectable=0;fillColor=none;top=0;left=0;bottom=0;right=0;editable=1;overflow=hidden;" parent="00DvF_M2tQQR9Dovzkwx-50" vertex="1">
                    <mxGeometry width="30" height="30" as="geometry">
                        <mxRectangle width="30" height="30" as="alternateBounds"/>
                    </mxGeometry>
                </mxCell>
                <mxCell id="00DvF_M2tQQR9Dovzkwx-52" value="학과명" style="shape=partialRectangle;connectable=0;fillColor=none;top=0;left=0;bottom=0;right=0;align=left;spacingLeft=6;overflow=hidden;" parent="00DvF_M2tQQR9Dovzkwx-50" vertex="1">
                    <mxGeometry x="30" width="89" height="30" as="geometry">
                        <mxRectangle width="89" height="30" as="alternateBounds"/>
                    </mxGeometry>
                </mxCell>
                <mxCell id="MWFlpXkXOoF9CiIFMSil-1" value="수강" style="shape=table;startSize=30;container=1;collapsible=1;childLayout=tableLayout;fixedRows=1;rowLines=0;fontStyle=1;align=center;resizeLast=1;" parent="1" vertex="1">
                    <mxGeometry x="334" y="328" width="149" height="180" as="geometry"/>
                </mxCell>
                <mxCell id="MWFlpXkXOoF9CiIFMSil-2" value="" style="shape=tableRow;horizontal=0;startSize=0;swimlaneHead=0;swimlaneBody=0;fillColor=none;collapsible=0;dropTarget=0;points=[[0,0.5],[1,0.5]];portConstraint=eastwest;top=0;left=0;right=0;bottom=0;" parent="MWFlpXkXOoF9CiIFMSil-1" vertex="1">
                    <mxGeometry y="30" width="149" height="30" as="geometry"/>
                </mxCell>
                <mxCell id="MWFlpXkXOoF9CiIFMSil-3" value="PK" style="shape=partialRectangle;connectable=0;fillColor=none;top=0;left=0;bottom=0;right=0;fontStyle=1;overflow=hidden;" parent="MWFlpXkXOoF9CiIFMSil-2" vertex="1">
                    <mxGeometry width="60" height="30" as="geometry">
                        <mxRectangle width="60" height="30" as="alternateBounds"/>
                    </mxGeometry>
                </mxCell>
                <mxCell id="MWFlpXkXOoF9CiIFMSil-4" value="수강번호" style="shape=partialRectangle;connectable=0;fillColor=none;top=0;left=0;bottom=0;right=0;align=left;spacingLeft=6;fontStyle=5;overflow=hidden;" parent="MWFlpXkXOoF9CiIFMSil-2" vertex="1">
                    <mxGeometry x="60" width="89" height="30" as="geometry">
                        <mxRectangle width="89" height="30" as="alternateBounds"/>
                    </mxGeometry>
                </mxCell>
                <mxCell id="MWFlpXkXOoF9CiIFMSil-5" value="" style="shape=tableRow;horizontal=0;startSize=0;swimlaneHead=0;swimlaneBody=0;fillColor=none;collapsible=0;dropTarget=0;points=[[0,0.5],[1,0.5]];portConstraint=eastwest;top=0;left=0;right=0;bottom=1;" parent="MWFlpXkXOoF9CiIFMSil-1" vertex="1">
                    <mxGeometry y="60" width="149" height="30" as="geometry"/>
                </mxCell>
                <mxCell id="MWFlpXkXOoF9CiIFMSil-6" value="FK" style="shape=partialRectangle;connectable=0;fillColor=none;top=0;left=0;bottom=0;right=0;fontStyle=1;overflow=hidden;" parent="MWFlpXkXOoF9CiIFMSil-5" vertex="1">
                    <mxGeometry width="60" height="30" as="geometry">
                        <mxRectangle width="60" height="30" as="alternateBounds"/>
                    </mxGeometry>
                </mxCell>
                <mxCell id="MWFlpXkXOoF9CiIFMSil-7" value="학번" style="shape=partialRectangle;connectable=0;fillColor=none;top=0;left=0;bottom=0;right=0;align=left;spacingLeft=6;fontStyle=5;overflow=hidden;" parent="MWFlpXkXOoF9CiIFMSil-5" vertex="1">
                    <mxGeometry x="60" width="89" height="30" as="geometry">
                        <mxRectangle width="89" height="30" as="alternateBounds"/>
                    </mxGeometry>
                </mxCell>
                <mxCell id="ibT_ppAMkUwYSjyRJByq-1" value="" style="shape=tableRow;horizontal=0;startSize=0;swimlaneHead=0;swimlaneBody=0;fillColor=none;collapsible=0;dropTarget=0;points=[[0,0.5],[1,0.5]];portConstraint=eastwest;top=0;left=0;right=0;bottom=1;" parent="MWFlpXkXOoF9CiIFMSil-1" vertex="1">
                    <mxGeometry y="90" width="149" height="30" as="geometry"/>
                </mxCell>
                <mxCell id="ibT_ppAMkUwYSjyRJByq-2" value="FK" style="shape=partialRectangle;connectable=0;fillColor=none;top=0;left=0;bottom=0;right=0;fontStyle=1;overflow=hidden;" parent="ibT_ppAMkUwYSjyRJByq-1" vertex="1">
                    <mxGeometry width="60" height="30" as="geometry">
                        <mxRectangle width="60" height="30" as="alternateBounds"/>
                    </mxGeometry>
                </mxCell>
                <mxCell id="ibT_ppAMkUwYSjyRJByq-3" value="과목코드" style="shape=partialRectangle;connectable=0;fillColor=none;top=0;left=0;bottom=0;right=0;align=left;spacingLeft=6;fontStyle=5;overflow=hidden;" parent="ibT_ppAMkUwYSjyRJByq-1" vertex="1">
                    <mxGeometry x="60" width="89" height="30" as="geometry">
                        <mxRectangle width="89" height="30" as="alternateBounds"/>
                    </mxGeometry>
                </mxCell>
                <mxCell id="MWFlpXkXOoF9CiIFMSil-8" value="" style="shape=tableRow;horizontal=0;startSize=0;swimlaneHead=0;swimlaneBody=0;fillColor=none;collapsible=0;dropTarget=0;points=[[0,0.5],[1,0.5]];portConstraint=eastwest;top=0;left=0;right=0;bottom=0;" parent="MWFlpXkXOoF9CiIFMSil-1" vertex="1">
                    <mxGeometry y="120" width="149" height="30" as="geometry"/>
                </mxCell>
                <mxCell id="MWFlpXkXOoF9CiIFMSil-9" value="" style="shape=partialRectangle;connectable=0;fillColor=none;top=0;left=0;bottom=0;right=0;editable=1;overflow=hidden;" parent="MWFlpXkXOoF9CiIFMSil-8" vertex="1">
                    <mxGeometry width="60" height="30" as="geometry">
                        <mxRectangle width="60" height="30" as="alternateBounds"/>
                    </mxGeometry>
                </mxCell>
                <mxCell id="MWFlpXkXOoF9CiIFMSil-10" value="수강일자" style="shape=partialRectangle;connectable=0;fillColor=none;top=0;left=0;bottom=0;right=0;align=left;spacingLeft=6;overflow=hidden;" parent="MWFlpXkXOoF9CiIFMSil-8" vertex="1">
                    <mxGeometry x="60" width="89" height="30" as="geometry">
                        <mxRectangle width="89" height="30" as="alternateBounds"/>
                    </mxGeometry>
                </mxCell>
                <mxCell id="MWFlpXkXOoF9CiIFMSil-11" value="" style="shape=tableRow;horizontal=0;startSize=0;swimlaneHead=0;swimlaneBody=0;fillColor=none;collapsible=0;dropTarget=0;points=[[0,0.5],[1,0.5]];portConstraint=eastwest;top=0;left=0;right=0;bottom=0;" parent="MWFlpXkXOoF9CiIFMSil-1" vertex="1">
                    <mxGeometry y="150" width="149" height="30" as="geometry"/>
                </mxCell>
                <mxCell id="MWFlpXkXOoF9CiIFMSil-12" value="" style="shape=partialRectangle;connectable=0;fillColor=none;top=0;left=0;bottom=0;right=0;editable=1;overflow=hidden;" parent="MWFlpXkXOoF9CiIFMSil-11" vertex="1">
                    <mxGeometry width="60" height="30" as="geometry">
                        <mxRectangle width="60" height="30" as="alternateBounds"/>
                    </mxGeometry>
                </mxCell>
                <mxCell id="MWFlpXkXOoF9CiIFMSil-13" value="학점" style="shape=partialRectangle;connectable=0;fillColor=none;top=0;left=0;bottom=0;right=0;align=left;spacingLeft=6;overflow=hidden;" parent="MWFlpXkXOoF9CiIFMSil-11" vertex="1">
                    <mxGeometry x="60" width="89" height="30" as="geometry">
                        <mxRectangle width="89" height="30" as="alternateBounds"/>
                    </mxGeometry>
                </mxCell>
                <mxCell id="MWFlpXkXOoF9CiIFMSil-14" value="" style="edgeStyle=entityRelationEdgeStyle;fontSize=12;html=1;endArrow=ERoneToMany;exitX=0;exitY=0.5;exitDx=0;exitDy=0;entryX=1;entryY=0.5;entryDx=0;entryDy=0;" parent="1" source="00DvF_M2tQQR9Dovzkwx-47" target="MWFlpXkXOoF9CiIFMSil-15" edge="1">
                    <mxGeometry width="100" height="100" relative="1" as="geometry">
                        <mxPoint x="384" y="150" as="sourcePoint"/>
                        <mxPoint x="484" y="50" as="targetPoint"/>
                    </mxGeometry>
                </mxCell>
                <mxCell id="MWFlpXkXOoF9CiIFMSil-18" value="" style="edgeStyle=entityRelationEdgeStyle;fontSize=12;html=1;endArrow=ERoneToMany;entryX=1;entryY=0.5;entryDx=0;entryDy=0;" parent="1" source="00DvF_M2tQQR9Dovzkwx-34" target="MWFlpXkXOoF9CiIFMSil-19" edge="1">
                    <mxGeometry width="100" height="100" relative="1" as="geometry">
                        <mxPoint x="424" y="540" as="sourcePoint"/>
                        <mxPoint x="524" y="440" as="targetPoint"/>
                    </mxGeometry>
                </mxCell>
                <mxCell id="MWFlpXkXOoF9CiIFMSil-23" value="" style="edgeStyle=entityRelationEdgeStyle;fontSize=12;html=1;endArrow=ERoneToMany;exitX=1;exitY=0.5;exitDx=0;exitDy=0;entryX=1;entryY=0.5;entryDx=0;entryDy=0;" parent="1" source="00DvF_M2tQQR9Dovzkwx-47" target="MWFlpXkXOoF9CiIFMSil-24" edge="1">
                    <mxGeometry width="100" height="100" relative="1" as="geometry">
                        <mxPoint x="373" y="540" as="sourcePoint"/>
                        <mxPoint x="473" y="440" as="targetPoint"/>
                    </mxGeometry>
                </mxCell>
                <mxCell id="ibT_ppAMkUwYSjyRJByq-4" value="" style="edgeStyle=entityRelationEdgeStyle;fontSize=12;html=1;endArrow=ERoneToMany;exitX=1;exitY=0.5;exitDx=0;exitDy=0;entryX=0;entryY=0.5;entryDx=0;entryDy=0;" parent="1" source="00DvF_M2tQQR9Dovzkwx-15" target="MWFlpXkXOoF9CiIFMSil-5" edge="1">
                    <mxGeometry width="100" height="100" relative="1" as="geometry">
                        <mxPoint x="393" y="540" as="sourcePoint"/>
                        <mxPoint x="493" y="440" as="targetPoint"/>
                    </mxGeometry>
                </mxCell>
                <mxCell id="ibT_ppAMkUwYSjyRJByq-5" value="" style="edgeStyle=entityRelationEdgeStyle;fontSize=12;html=1;endArrow=ERoneToMany;exitX=1;exitY=0.5;exitDx=0;exitDy=0;entryX=0;entryY=0.5;entryDx=0;entryDy=0;" parent="1" source="00DvF_M2tQQR9Dovzkwx-2" target="ibT_ppAMkUwYSjyRJByq-1" edge="1">
                    <mxGeometry width="100" height="100" relative="1" as="geometry">
                        <mxPoint x="393" y="540" as="sourcePoint"/>
                        <mxPoint x="493" y="440" as="targetPoint"/>
                    </mxGeometry>
                </mxCell>
            </root>
        </mxGraphModel>
    </diagram>
</mxfile>